<svg width="28" height="28" viewBox="0 0 28 28" fill="none" xmlns="http://www.w3.org/2000/svg">
    <path fill-rule="evenodd" clip-rule="evenodd" d="M21.0892 17.8016C22.1207 16.8939 22.9629 15.9589 23.5523 15.2433C24.0051 14.6935 24.2316 14.4186 24.2316 14C24.2316 13.5814 24.0051 13.3065 23.5523 12.7567C21.8955 10.7452 18.2413 7 13.9996 7C12.927 7 11.892 7.23946 10.9174 7.62981L13.7935 10.506C13.8617 10.502 13.9304 10.5 13.9996 10.5C15.9326 10.5 17.4996 12.067 17.4996 14C17.4996 14.0692 17.4976 14.1379 17.4936 14.2061L21.0892 17.8016ZM11.0936 12.0487C10.7185 12.6062 10.4996 13.2775 10.4996 14C10.4996 15.933 12.0666 17.5 13.9996 17.5C14.722 17.5 15.3934 17.2811 15.9509 16.906L18.6424 19.5975C17.2425 20.4217 15.6664 21 13.9996 21C9.75788 21 6.10363 17.2548 4.44686 15.2433C3.99401 14.6935 3.76758 14.4186 3.76758 14C3.76758 13.5814 3.99401 13.3065 4.44686 12.7567C5.26698 11.761 6.57655 10.3404 8.20455 9.15965L11.0936 12.0487Z" fill="#B9BDCA"/>
    <path d="M5.83301 2.3335L24.4997 21.0002" stroke="#B9BDCA" stroke-width="2"/>
    </svg>
    