<svg width="28" height="28" viewBox="0 0 28 28" fill="none" xmlns="http://www.w3.org/2000/svg">
    <path fill-rule="evenodd" clip-rule="evenodd" d="M24.2731 14C24.2731 13.6466 24.0798 13.4072 23.6931 12.9284C22.1093 10.9673 18.366 7 14.0003 7C9.63468 7 5.89132 10.9673 4.30753 12.9284C3.92087 13.4072 3.72754 13.6466 3.72754 14C3.72754 14.3534 3.92087 14.5928 4.30753 15.0716C5.89132 17.0327 9.63468 21 14.0003 21C18.366 21 22.1093 17.0327 23.6931 15.0716C24.0798 14.5928 24.2731 14.3534 24.2731 14ZM14.0003 17.5C15.9333 17.5 17.5003 15.933 17.5003 14C17.5003 12.067 15.9333 10.5 14.0003 10.5C12.0673 10.5 10.5003 12.067 10.5003 14C10.5003 15.933 12.0673 17.5 14.0003 17.5Z" fill="#CCD2E3"/>
    </svg>
    