<svg t="1692692230226" class="icon" viewBox="0 0 1024 1024" version="1.1" xmlns="http://www.w3.org/2000/svg" p-id="1464" width="12" height="12"><path d="M625.3 512l375.2 375.2c31.3 31.3 31.3 82 0 113.3-31.3 31.3-82 31.3-113.3 0L512 625.3l-375.2 375.2c-31.3 31.3-82 31.3-113.3 0-31.3-31.3-31.3-82 0-113.3L398.7 512 23.5 136.8c-31.3-31.3-31.3-82 0-113.3 31.3-31.3 82-31.3 113.3 0L512 398.7 887.2 23.5c31.3-31.3 82-31.3 113.3 0 31.3 31.3 31.3 82 0 113.3L625.3 512z" fill="#ADADAD" p-id="1465"></path></svg>